<?xml version="1.0" encoding="UTF-8" ?>
<svg version="1.1" width="64" height="64" xmlns="http://www.w3.org/2000/svg" shape-rendering="crispEdges">
<rect x="0" y="0" width="64" height="15" fill="#C3B091" />
<rect x="0" y="15" width="8" height="49" fill="#C3B091" />
<rect x="8" y="15" width="6" height="2" fill="#000000" />
<rect x="14" y="15" width="20" height="2" fill="#C3B091" />
<rect x="34" y="15" width="2" height="12" fill="#000000" />
<rect x="36" y="15" width="12" height="2" fill="#C3B091" />
<rect x="48" y="15" width="2" height="12" fill="#000000" />
<rect x="50" y="15" width="14" height="2" fill="#C3B091" />
<rect x="8" y="17" width="2" height="10" fill="#000000" />
<rect x="10" y="17" width="4" height="2" fill="#C3B091" />
<rect x="14" y="17" width="2" height="2" fill="#000000" />
<rect x="16" y="17" width="4" height="6" fill="#C3B091" />
<rect x="20" y="17" width="4" height="2" fill="#000000" />
<rect x="24" y="17" width="10" height="2" fill="#C3B091" />
<rect x="36" y="17" width="2" height="24" fill="#C3B091" />
<rect x="38" y="17" width="2" height="8" fill="#000000" />
<rect x="40" y="17" width="4" height="8" fill="#C3B091" />
<rect x="44" y="17" width="2" height="10" fill="#000000" />
<rect x="46" y="17" width="2" height="22" fill="#C3B091" />
<rect x="50" y="17" width="4" height="2" fill="#C3B091" />
<rect x="54" y="17" width="2" height="2" fill="#000000" />
<rect x="56" y="17" width="8" height="47" fill="#C3B091" />
<rect x="10" y="19" width="4" height="2" fill="#000000" />
<rect x="14" y="19" width="2" height="2" fill="#C3B091" />
<rect x="20" y="19" width="4" height="2" fill="#C3B091" />
<rect x="24" y="19" width="2" height="8" fill="#000000" />
<rect x="26" y="19" width="4" height="2" fill="#C3B091" />
<rect x="30" y="19" width="4" height="2" fill="#000000" />
<rect x="50" y="19" width="2" height="2" fill="#C3B091" />
<rect x="52" y="19" width="2" height="2" fill="#000000" />
<rect x="54" y="19" width="2" height="6" fill="#C3B091" />
<rect x="10" y="21" width="4" height="4" fill="#C3B091" />
<rect x="14" y="21" width="2" height="4" fill="#000000" />
<rect x="20" y="21" width="4" height="2" fill="#000000" />
<rect x="26" y="21" width="2" height="18" fill="#C3B091" />
<rect x="28" y="21" width="2" height="4" fill="#000000" />
<rect x="30" y="21" width="4" height="4" fill="#C3B091" />
<rect x="50" y="21" width="2" height="2" fill="#000000" />
<rect x="52" y="21" width="2" height="2" fill="#C3B091" />
<rect x="16" y="23" width="2" height="14" fill="#C3B091" />
<rect x="18" y="23" width="2" height="2" fill="#000000" />
<rect x="20" y="23" width="4" height="2" fill="#C3B091" />
<rect x="50" y="23" width="2" height="41" fill="#C3B091" />
<rect x="52" y="23" width="2" height="2" fill="#000000" />
<rect x="10" y="25" width="4" height="2" fill="#000000" />
<rect x="14" y="25" width="2" height="12" fill="#C3B091" />
<rect x="18" y="25" width="2" height="12" fill="#C3B091" />
<rect x="20" y="25" width="4" height="2" fill="#000000" />
<rect x="28" y="25" width="2" height="14" fill="#C3B091" />
<rect x="30" y="25" width="4" height="2" fill="#000000" />
<rect x="38" y="25" width="2" height="14" fill="#C3B091" />
<rect x="40" y="25" width="4" height="2" fill="#000000" />
<rect x="52" y="25" width="2" height="39" fill="#C3B091" />
<rect x="54" y="25" width="2" height="2" fill="#000000" />
<rect x="8" y="27" width="6" height="37" fill="#C3B091" />
<rect x="20" y="27" width="6" height="10" fill="#C3B091" />
<rect x="30" y="27" width="6" height="12" fill="#C3B091" />
<rect x="40" y="27" width="6" height="12" fill="#C3B091" />
<rect x="48" y="27" width="2" height="14" fill="#C3B091" />
<rect x="54" y="27" width="2" height="37" fill="#C3B091" />
<rect x="14" y="37" width="8" height="2" fill="#FFFFFF" />
<rect x="22" y="37" width="4" height="4" fill="#C3B091" />
<rect x="14" y="39" width="6" height="2" fill="#C3B091" />
<rect x="20" y="39" width="2" height="2" fill="#FFFFFF" />
<rect x="26" y="39" width="4" height="2" fill="#FFFFFF" />
<rect x="30" y="39" width="4" height="2" fill="#C3B091" />
<rect x="34" y="39" width="2" height="10" fill="#FFFFFF" />
<rect x="38" y="39" width="2" height="2" fill="#FFFFFF" />
<rect x="40" y="39" width="4" height="2" fill="#C3B091" />
<rect x="44" y="39" width="4" height="2" fill="#FFFFFF" />
<rect x="14" y="41" width="4" height="2" fill="#C3B091" />
<rect x="18" y="41" width="2" height="2" fill="#FFFFFF" />
<rect x="20" y="41" width="4" height="6" fill="#C3B091" />
<rect x="24" y="41" width="2" height="6" fill="#FFFFFF" />
<rect x="26" y="41" width="4" height="2" fill="#C3B091" />
<rect x="30" y="41" width="2" height="4" fill="#FFFFFF" />
<rect x="32" y="41" width="2" height="23" fill="#C3B091" />
<rect x="36" y="41" width="2" height="2" fill="#FFFFFF" />
<rect x="38" y="41" width="4" height="23" fill="#C3B091" />
<rect x="42" y="41" width="2" height="6" fill="#FFFFFF" />
<rect x="44" y="41" width="4" height="6" fill="#C3B091" />
<rect x="48" y="41" width="2" height="6" fill="#FFFFFF" />
<rect x="14" y="43" width="2" height="2" fill="#C3B091" />
<rect x="16" y="43" width="2" height="2" fill="#FFFFFF" />
<rect x="18" y="43" width="2" height="4" fill="#C3B091" />
<rect x="26" y="43" width="4" height="2" fill="#FFFFFF" />
<rect x="36" y="43" width="2" height="21" fill="#C3B091" />
<rect x="14" y="45" width="2" height="4" fill="#FFFFFF" />
<rect x="16" y="45" width="2" height="2" fill="#C3B091" />
<rect x="26" y="45" width="6" height="2" fill="#C3B091" />
<rect x="16" y="47" width="6" height="2" fill="#FFFFFF" />
<rect x="22" y="47" width="4" height="17" fill="#C3B091" />
<rect x="26" y="47" width="4" height="2" fill="#FFFFFF" />
<rect x="30" y="47" width="2" height="17" fill="#C3B091" />
<rect x="42" y="47" width="2" height="17" fill="#C3B091" />
<rect x="44" y="47" width="4" height="2" fill="#FFFFFF" />
<rect x="48" y="47" width="2" height="17" fill="#C3B091" />
<rect x="14" y="49" width="8" height="15" fill="#C3B091" />
<rect x="26" y="49" width="4" height="15" fill="#C3B091" />
<rect x="34" y="49" width="2" height="15" fill="#C3B091" />
<rect x="44" y="49" width="4" height="15" fill="#C3B091" />
</svg>